<mxfile host="app.diagrams.net" modified="2021-04-07T19:23:23.267Z" agent="5.0 (Windows NT 6.3; Win64; x64) AppleWebKit/537.36 (KHTML, like Gecko) Chrome/89.0.4389.114 Safari/537.36" etag="AxLHcrLxzSk6jDEda7nP" version="14.5.8" type="github">
  <diagram id="llKbZf16bu118BBovQqJ" name="Page-1">
    <mxGraphModel dx="1846" dy="519" grid="1" gridSize="10" guides="1" tooltips="1" connect="1" arrows="1" fold="1" page="1" pageScale="1" pageWidth="827" pageHeight="1169" math="0" shadow="0">
      <root>
        <mxCell id="0" />
        <mxCell id="1" parent="0" />
        <mxCell id="UhuXat_0e_ff8XkC-WE6-34" style="edgeStyle=orthogonalEdgeStyle;rounded=0;orthogonalLoop=1;jettySize=auto;html=1;exitX=1;exitY=0.5;exitDx=0;exitDy=0;entryX=0;entryY=0.5;entryDx=0;entryDy=0;" edge="1" parent="1" source="UhuXat_0e_ff8XkC-WE6-1" target="UhuXat_0e_ff8XkC-WE6-2">
          <mxGeometry relative="1" as="geometry" />
        </mxCell>
        <mxCell id="UhuXat_0e_ff8XkC-WE6-37" style="edgeStyle=orthogonalEdgeStyle;rounded=0;orthogonalLoop=1;jettySize=auto;html=1;exitX=1;exitY=0.5;exitDx=0;exitDy=0;entryX=0;entryY=0.5;entryDx=0;entryDy=0;" edge="1" parent="1" source="UhuXat_0e_ff8XkC-WE6-1" target="UhuXat_0e_ff8XkC-WE6-9">
          <mxGeometry relative="1" as="geometry" />
        </mxCell>
        <mxCell id="UhuXat_0e_ff8XkC-WE6-38" style="edgeStyle=orthogonalEdgeStyle;rounded=0;orthogonalLoop=1;jettySize=auto;html=1;exitX=1;exitY=0.5;exitDx=0;exitDy=0;entryX=0;entryY=0.5;entryDx=0;entryDy=0;" edge="1" parent="1" source="UhuXat_0e_ff8XkC-WE6-1" target="UhuXat_0e_ff8XkC-WE6-18">
          <mxGeometry relative="1" as="geometry" />
        </mxCell>
        <mxCell id="UhuXat_0e_ff8XkC-WE6-40" style="edgeStyle=orthogonalEdgeStyle;rounded=0;orthogonalLoop=1;jettySize=auto;html=1;exitX=1;exitY=0.5;exitDx=0;exitDy=0;entryX=0;entryY=0.5;entryDx=0;entryDy=0;" edge="1" parent="1" source="UhuXat_0e_ff8XkC-WE6-1" target="UhuXat_0e_ff8XkC-WE6-23">
          <mxGeometry relative="1" as="geometry" />
        </mxCell>
        <mxCell id="UhuXat_0e_ff8XkC-WE6-42" style="edgeStyle=orthogonalEdgeStyle;rounded=0;orthogonalLoop=1;jettySize=auto;html=1;exitX=1;exitY=0.5;exitDx=0;exitDy=0;entryX=0;entryY=0.5;entryDx=0;entryDy=0;" edge="1" parent="1" source="UhuXat_0e_ff8XkC-WE6-1" target="UhuXat_0e_ff8XkC-WE6-41">
          <mxGeometry relative="1" as="geometry" />
        </mxCell>
        <mxCell id="UhuXat_0e_ff8XkC-WE6-1" value="&lt;font style=&quot;vertical-align: inherit&quot;&gt;&lt;font style=&quot;vertical-align: inherit&quot;&gt;Realidad virtual&lt;br&gt;a personas con discapacidad&lt;br&gt;&lt;/font&gt;&lt;/font&gt;" style="rounded=1;whiteSpace=wrap;html=1;fillColor=#dae8fc;strokeColor=#4A71BF;" vertex="1" parent="1">
          <mxGeometry x="-170" y="210" width="230" height="60" as="geometry" />
        </mxCell>
        <mxCell id="UhuXat_0e_ff8XkC-WE6-2" value="&lt;font style=&quot;vertical-align: inherit&quot;&gt;&lt;font style=&quot;vertical-align: inherit&quot;&gt;Igualdad de oportunidades e inclusin para las personas con discapacidad&lt;/font&gt;&lt;/font&gt;" style="rounded=1;whiteSpace=wrap;html=1;fillColor=#f8cecc;strokeColor=#b85450;" vertex="1" parent="1">
          <mxGeometry x="230" y="80" width="260" height="30" as="geometry" />
        </mxCell>
        <mxCell id="UhuXat_0e_ff8XkC-WE6-31" style="edgeStyle=orthogonalEdgeStyle;rounded=0;orthogonalLoop=1;jettySize=auto;html=1;exitX=1;exitY=0.5;exitDx=0;exitDy=0;entryX=0;entryY=0.5;entryDx=0;entryDy=0;" edge="1" parent="1" source="UhuXat_0e_ff8XkC-WE6-9" target="UhuXat_0e_ff8XkC-WE6-30">
          <mxGeometry relative="1" as="geometry" />
        </mxCell>
        <mxCell id="UhuXat_0e_ff8XkC-WE6-32" style="edgeStyle=orthogonalEdgeStyle;rounded=0;orthogonalLoop=1;jettySize=auto;html=1;exitX=1;exitY=0.5;exitDx=0;exitDy=0;entryX=0;entryY=0.5;entryDx=0;entryDy=0;" edge="1" parent="1" source="UhuXat_0e_ff8XkC-WE6-9" target="UhuXat_0e_ff8XkC-WE6-29">
          <mxGeometry relative="1" as="geometry" />
        </mxCell>
        <mxCell id="UhuXat_0e_ff8XkC-WE6-33" style="edgeStyle=orthogonalEdgeStyle;rounded=0;orthogonalLoop=1;jettySize=auto;html=1;exitX=1;exitY=0.5;exitDx=0;exitDy=0;entryX=0;entryY=0.75;entryDx=0;entryDy=0;" edge="1" parent="1" source="UhuXat_0e_ff8XkC-WE6-9" target="UhuXat_0e_ff8XkC-WE6-28">
          <mxGeometry relative="1" as="geometry" />
        </mxCell>
        <mxCell id="UhuXat_0e_ff8XkC-WE6-9" value="&lt;font style=&quot;vertical-align: inherit&quot;&gt;&lt;font style=&quot;vertical-align: inherit&quot;&gt;Tecnologías Unir la realidad virtual y la ayuda de mejorar la discapacidad por un lado psicológico&lt;/font&gt;&lt;/font&gt;" style="rounded=1;whiteSpace=wrap;html=1;fillColor=#d5e8d4;strokeColor=#82b366;" vertex="1" parent="1">
          <mxGeometry x="230" y="200" width="290" height="50" as="geometry" />
        </mxCell>
        <mxCell id="UhuXat_0e_ff8XkC-WE6-17" style="edgeStyle=orthogonalEdgeStyle;rounded=0;orthogonalLoop=1;jettySize=auto;html=1;exitX=1;exitY=0.5;exitDx=0;exitDy=0;entryX=0;entryY=0.75;entryDx=0;entryDy=0;" edge="1" parent="1" source="UhuXat_0e_ff8XkC-WE6-18" target="UhuXat_0e_ff8XkC-WE6-20">
          <mxGeometry relative="1" as="geometry" />
        </mxCell>
        <mxCell id="UhuXat_0e_ff8XkC-WE6-27" style="edgeStyle=orthogonalEdgeStyle;rounded=0;orthogonalLoop=1;jettySize=auto;html=1;exitX=1;exitY=0.5;exitDx=0;exitDy=0;entryX=0;entryY=0.75;entryDx=0;entryDy=0;" edge="1" parent="1" source="UhuXat_0e_ff8XkC-WE6-18" target="UhuXat_0e_ff8XkC-WE6-19">
          <mxGeometry relative="1" as="geometry" />
        </mxCell>
        <mxCell id="UhuXat_0e_ff8XkC-WE6-18" value="&lt;font style=&quot;vertical-align: inherit&quot;&gt;&lt;font style=&quot;vertical-align: inherit&quot;&gt;Diagnosticos&lt;/font&gt;&lt;/font&gt;" style="rounded=1;whiteSpace=wrap;html=1;fillColor=#ffe6cc;strokeColor=#d79b00;" vertex="1" parent="1">
          <mxGeometry x="230" y="320" width="120" height="20" as="geometry" />
        </mxCell>
        <mxCell id="UhuXat_0e_ff8XkC-WE6-19" value="&lt;font style=&quot;vertical-align: inherit&quot;&gt;&lt;font style=&quot;vertical-align: inherit&quot;&gt;Rehabilitación&lt;/font&gt;&lt;/font&gt;" style="rounded=1;whiteSpace=wrap;html=1;fillColor=#ffe6cc;strokeColor=#d79b00;" vertex="1" parent="1">
          <mxGeometry x="520" y="300" width="120" height="20" as="geometry" />
        </mxCell>
        <mxCell id="UhuXat_0e_ff8XkC-WE6-20" value="&lt;font style=&quot;vertical-align: inherit&quot;&gt;&lt;font style=&quot;vertical-align: inherit&quot;&gt;Fines Terapeiticos&lt;/font&gt;&lt;/font&gt;" style="rounded=1;whiteSpace=wrap;html=1;fillColor=#ffe6cc;strokeColor=#d79b00;" vertex="1" parent="1">
          <mxGeometry x="520" y="340" width="130" height="20" as="geometry" />
        </mxCell>
        <mxCell id="UhuXat_0e_ff8XkC-WE6-21" style="edgeStyle=orthogonalEdgeStyle;rounded=0;orthogonalLoop=1;jettySize=auto;html=1;entryX=0;entryY=0.5;entryDx=0;entryDy=0;" edge="1" source="UhuXat_0e_ff8XkC-WE6-23" target="UhuXat_0e_ff8XkC-WE6-24" parent="1">
          <mxGeometry relative="1" as="geometry" />
        </mxCell>
        <mxCell id="UhuXat_0e_ff8XkC-WE6-22" style="edgeStyle=orthogonalEdgeStyle;rounded=0;orthogonalLoop=1;jettySize=auto;html=1;exitX=1;exitY=0.5;exitDx=0;exitDy=0;entryX=0;entryY=0.5;entryDx=0;entryDy=0;" edge="1" source="UhuXat_0e_ff8XkC-WE6-23" target="UhuXat_0e_ff8XkC-WE6-25" parent="1">
          <mxGeometry relative="1" as="geometry" />
        </mxCell>
        <mxCell id="UhuXat_0e_ff8XkC-WE6-23" value="&lt;font style=&quot;vertical-align: inherit&quot;&gt;&lt;font style=&quot;vertical-align: inherit&quot;&gt;Experciencias fuera de su alcance&lt;/font&gt;&lt;/font&gt;" style="rounded=1;whiteSpace=wrap;html=1;fillColor=#e6d0de;strokeColor=#996185;gradientColor=#d5739d;" vertex="1" parent="1">
          <mxGeometry x="230" y="450" width="120" height="30" as="geometry" />
        </mxCell>
        <mxCell id="UhuXat_0e_ff8XkC-WE6-24" value="&lt;font style=&quot;vertical-align: inherit&quot;&gt;&lt;font style=&quot;vertical-align: inherit&quot;&gt;Facilidad de movimientos,intercambios de comunicacion&lt;/font&gt;&lt;/font&gt;" style="rounded=1;whiteSpace=wrap;html=1;fillColor=#e6d0de;strokeColor=#996185;gradientColor=#d5739d;" vertex="1" parent="1">
          <mxGeometry x="500" y="430" width="190" height="50" as="geometry" />
        </mxCell>
        <mxCell id="UhuXat_0e_ff8XkC-WE6-25" value="&lt;font style=&quot;vertical-align: inherit&quot;&gt;&lt;font style=&quot;vertical-align: inherit&quot;&gt;Estimula los sentidos&amp;nbsp;&lt;/font&gt;&lt;/font&gt;" style="rounded=1;whiteSpace=wrap;html=1;fillColor=#bac8d3;strokeColor=#23445d;" vertex="1" parent="1">
          <mxGeometry x="505" y="500" width="120" height="30" as="geometry" />
        </mxCell>
        <mxCell id="UhuXat_0e_ff8XkC-WE6-28" value="Blexer" style="rounded=1;whiteSpace=wrap;html=1;fillColor=#d5e8d4;strokeColor=#82b366;" vertex="1" parent="1">
          <mxGeometry x="570" y="240" width="120" height="20" as="geometry" />
        </mxCell>
        <mxCell id="UhuXat_0e_ff8XkC-WE6-29" value="Feel" style="rounded=1;whiteSpace=wrap;html=1;fillColor=#d5e8d4;strokeColor=#82b366;" vertex="1" parent="1">
          <mxGeometry x="570" y="210" width="120" height="20" as="geometry" />
        </mxCell>
        <mxCell id="UhuXat_0e_ff8XkC-WE6-30" value="Walkin VR" style="rounded=1;whiteSpace=wrap;html=1;fillColor=#d5e8d4;strokeColor=#82b366;" vertex="1" parent="1">
          <mxGeometry x="570" y="180" width="120" height="20" as="geometry" />
        </mxCell>
        <mxCell id="UhuXat_0e_ff8XkC-WE6-47" style="edgeStyle=orthogonalEdgeStyle;rounded=0;orthogonalLoop=1;jettySize=auto;html=1;exitX=1;exitY=0.5;exitDx=0;exitDy=0;entryX=0;entryY=0.5;entryDx=0;entryDy=0;" edge="1" parent="1" source="UhuXat_0e_ff8XkC-WE6-41" target="UhuXat_0e_ff8XkC-WE6-43">
          <mxGeometry relative="1" as="geometry" />
        </mxCell>
        <mxCell id="UhuXat_0e_ff8XkC-WE6-48" style="edgeStyle=orthogonalEdgeStyle;rounded=0;orthogonalLoop=1;jettySize=auto;html=1;exitX=1;exitY=0.5;exitDx=0;exitDy=0;entryX=0;entryY=0.5;entryDx=0;entryDy=0;" edge="1" parent="1" source="UhuXat_0e_ff8XkC-WE6-41" target="UhuXat_0e_ff8XkC-WE6-46">
          <mxGeometry relative="1" as="geometry" />
        </mxCell>
        <mxCell id="UhuXat_0e_ff8XkC-WE6-41" value="Metodologías de aprendizaje en la sal va R. Virtual" style="rounded=1;whiteSpace=wrap;html=1;fillColor=#9FF7DA;strokeColor=#1A1A1A;" vertex="1" parent="1">
          <mxGeometry x="230" y="590" width="190" height="40" as="geometry" />
        </mxCell>
        <mxCell id="UhuXat_0e_ff8XkC-WE6-49" style="edgeStyle=orthogonalEdgeStyle;rounded=0;orthogonalLoop=1;jettySize=auto;html=1;exitX=1;exitY=0.5;exitDx=0;exitDy=0;entryX=0;entryY=0.5;entryDx=0;entryDy=0;" edge="1" parent="1" source="UhuXat_0e_ff8XkC-WE6-43" target="UhuXat_0e_ff8XkC-WE6-45">
          <mxGeometry relative="1" as="geometry" />
        </mxCell>
        <mxCell id="UhuXat_0e_ff8XkC-WE6-43" value="Transmisor y constructor de conocimientos" style="rounded=1;whiteSpace=wrap;html=1;fillColor=#9FF7DA;" vertex="1" parent="1">
          <mxGeometry x="505" y="590" width="120" height="40" as="geometry" />
        </mxCell>
        <mxCell id="UhuXat_0e_ff8XkC-WE6-44" value="" style="rounded=1;whiteSpace=wrap;html=1;" vertex="1" parent="1">
          <mxGeometry x="250" y="830" width="120" height="60" as="geometry" />
        </mxCell>
        <mxCell id="UhuXat_0e_ff8XkC-WE6-45" value="incremento e habilidades cognitivas" style="rounded=1;whiteSpace=wrap;html=1;fillColor=#9FF7DA;" vertex="1" parent="1">
          <mxGeometry x="690" y="610" width="200" height="60" as="geometry" />
        </mxCell>
        <mxCell id="UhuXat_0e_ff8XkC-WE6-50" style="edgeStyle=orthogonalEdgeStyle;rounded=0;orthogonalLoop=1;jettySize=auto;html=1;exitX=1;exitY=0.5;exitDx=0;exitDy=0;" edge="1" parent="1" source="UhuXat_0e_ff8XkC-WE6-46" target="UhuXat_0e_ff8XkC-WE6-45">
          <mxGeometry relative="1" as="geometry" />
        </mxCell>
        <mxCell id="UhuXat_0e_ff8XkC-WE6-46" value="inmersión en la simulación digital" style="rounded=1;whiteSpace=wrap;html=1;fillColor=#9FF7DA;" vertex="1" parent="1">
          <mxGeometry x="505" y="670" width="120" height="40" as="geometry" />
        </mxCell>
      </root>
    </mxGraphModel>
  </diagram>
</mxfile>
